<svg width="40" height="40" viewBox="0 0 40 40" fill="none" xmlns="http://www.w3.org/2000/svg">
<path d="M37.7186 12.7397L23.8586 1.6597C21.7186 -0.0603015 18.2586 -0.0603015 16.1386 1.6397L2.27858 12.7397C0.718577 13.9797 -0.281423 16.5997 0.058577 18.5597L2.71858 34.4797C3.19858 37.3197 5.91858 39.6197 8.79858 39.6197H31.1986C34.0586 39.6197 36.7986 37.2997 37.2786 34.4797L39.9386 18.5597C40.2586 16.5997 39.2586 13.9797 37.7186 12.7397ZM19.9986 26.9997C17.2386 26.9997 14.9986 24.7597 14.9986 21.9997C14.9986 19.2397 17.2386 16.9997 19.9986 16.9997C22.7586 16.9997 24.9986 19.2397 24.9986 21.9997C24.9986 24.7597 22.7586 26.9997 19.9986 26.9997Z" fill="#68B92E"/>
</svg>
