<svg width="18" height="19" viewBox="0 0 18 19" fill="none" xmlns="http://www.w3.org/2000/svg">
<path d="M16.4796 5.33271L9.42131 9.42104C9.13714 9.58604 8.77964 9.58604 8.48631 9.42104L1.42798 5.33271C0.92381 5.03937 0.795477 4.35188 1.18048 3.92104C1.44631 3.61854 1.74881 3.37104 2.06964 3.19687L7.03798 0.446875C8.10131 -0.148958 9.82464 -0.148958 10.888 0.446875L15.8563 3.19687C16.1771 3.37104 16.4796 3.62771 16.7455 3.92104C17.1121 4.35188 16.9838 5.03937 16.4796 5.33271Z" fill="url(#paint0_linear_2_1374)" fill-opacity="0.72"/>
<path d="M8.43333 11.1237V17.3754C8.43333 18.0721 7.7275 18.5304 7.10417 18.2279C5.21583 17.3021 2.035 15.5696 2.035 15.5696C0.916667 14.9371 0 13.3421 0 12.0312V7.30125C0 6.57708 0.760833 6.11875 1.38417 6.47625L7.975 10.2987C8.25 10.4729 8.43333 10.7846 8.43333 11.1237Z" fill="url(#paint1_linear_2_1374)" fill-opacity="0.72"/>
<path d="M9.47819 11.1237V17.3754C9.47819 18.0721 10.184 18.5304 10.8074 18.2279C12.6957 17.3021 15.8765 15.5696 15.8765 15.5696C16.9949 14.9371 17.9115 13.3421 17.9115 12.0312V7.30125C17.9115 6.57708 17.1507 6.11875 16.5274 6.47625L9.93652 10.2987C9.66152 10.4729 9.47819 10.7846 9.47819 11.1237Z" fill="url(#paint2_linear_2_1374)" fill-opacity="0.72"/>
<defs>
<linearGradient id="paint0_linear_2_1374" x1="8.95576" y1="0" x2="8.95576" y2="18.3227" gradientUnits="userSpaceOnUse">
<stop stop-color="#74CC3F"/>
<stop offset="1" stop-color="#3DA202"/>
</linearGradient>
<linearGradient id="paint1_linear_2_1374" x1="8.95576" y1="0" x2="8.95576" y2="18.3227" gradientUnits="userSpaceOnUse">
<stop stop-color="#74CC3F"/>
<stop offset="1" stop-color="#3DA202"/>
</linearGradient>
<linearGradient id="paint2_linear_2_1374" x1="8.95576" y1="0" x2="8.95576" y2="18.3227" gradientUnits="userSpaceOnUse">
<stop stop-color="#74CC3F"/>
<stop offset="1" stop-color="#3DA202"/>
</linearGradient>
</defs>
</svg>
