<svg width="44" height="39" viewBox="0 0 44 39" fill="none" xmlns="http://www.w3.org/2000/svg">
<path d="M28.6433 7.18926H8.19C7.58333 7.18926 7.02 7.21093 6.5 7.2326C1.365 7.53593 0 9.42093 0 15.2709V16.5276C0 17.7193 0.975 18.6943 2.16667 18.6943H34.6667C35.8583 18.6943 36.8333 17.7193 36.8333 16.5276V15.2709C36.8333 8.81426 35.1867 7.18926 28.6433 7.18926Z" fill="#68B92E"/>
<path d="M2.16667 21.9377C0.975 21.9377 0 22.9127 0 24.1044V30.4094C0 36.8661 1.64667 38.4911 8.19 38.4911H28.6433C35.0783 38.4911 36.7683 36.9311 36.8333 30.7561V24.1044C36.8333 22.9127 35.8583 21.9377 34.6667 21.9377H2.16667ZM10.7467 33.2044H7.04167C6.15333 33.2044 5.41667 32.4677 5.41667 31.5794C5.41667 30.6911 6.15333 29.9544 7.04167 29.9544H10.7683C11.6567 29.9544 12.3933 30.6911 12.3933 31.5794C12.3933 32.4677 11.6567 33.2044 10.7467 33.2044ZM22.8583 33.2044H15.405C14.5167 33.2044 13.78 32.4677 13.78 31.5794C13.78 30.6911 14.5167 29.9544 15.405 29.9544H22.8583C23.7467 29.9544 24.4833 30.6911 24.4833 31.5794C24.4833 32.4677 23.7683 33.2044 22.8583 33.2044Z" fill="#68B92E"/>
<path d="M43.3333 21.8824V10.5291C43.3333 3.74745 39.4549 0.800781 33.6049 0.800781H14.2566C12.6099 0.800781 11.1366 1.03911 9.83659 1.53745C8.81825 1.90578 7.90826 2.44745 7.17159 3.16245C6.78159 3.53078 7.08492 4.13745 7.64826 4.13745H31.1999C36.0749 4.13745 40.0182 8.08078 40.0182 12.9558V28.4908C40.0182 29.0324 40.6033 29.3358 40.9933 28.9458C42.4883 27.3641 43.3333 25.0458 43.3333 21.8824Z" fill="#68B92E"/>
</svg>
