<svg width="17" height="15" viewBox="0 0 17 15" fill="none" xmlns="http://www.w3.org/2000/svg">
<path d="M5.66678 14.7333C6.2927 14.7333 6.80011 14.2259 6.80011 13.6C6.80011 12.9741 6.2927 12.4667 5.66678 12.4667C5.04086 12.4667 4.53345 12.9741 4.53345 13.6C4.53345 14.2259 5.04086 14.7333 5.66678 14.7333Z" fill="#F7F7F7"/>
<path d="M14.7334 14.7333C15.3594 14.7333 15.8668 14.2259 15.8668 13.6C15.8668 12.9741 15.3594 12.4667 14.7334 12.4667C14.1075 12.4667 13.6001 12.9741 13.6001 13.6C13.6001 14.2259 14.1075 14.7333 14.7334 14.7333Z" fill="#F7F7F7"/>
<path d="M16.7842 2.1168C16.6954 2.01429 16.5835 1.93174 16.4566 1.87512C16.3298 1.8185 16.1912 1.78925 16.0509 1.78947H4.02575L3.78355 0.492851C3.75773 0.354737 3.68115 0.229625 3.56727 0.139492C3.4534 0.0493597 3.3095 -2.94672e-05 3.16086 1.319e-08H0.632173C0.46451 1.319e-08 0.303714 0.0628446 0.185159 0.174708C0.0666037 0.286572 0 0.438292 0 0.596491C0 0.754691 0.0666037 0.90641 0.185159 1.01827C0.303714 1.13014 0.46451 1.19298 0.632173 1.19298H2.63063L4.43469 10.8405C4.46052 10.9786 4.53709 11.1037 4.65097 11.1938C4.76485 11.284 4.90874 11.3334 5.05738 11.3333H15.1721C15.3398 11.3333 15.5006 11.2705 15.6192 11.1586C15.7377 11.0468 15.8043 10.895 15.8043 10.7368C15.8043 10.5786 15.7377 10.4269 15.6192 10.3151C15.5006 10.2032 15.3398 10.1404 15.1721 10.1404H5.58762L5.36478 8.94737H14.913C15.1322 8.94711 15.3446 8.87538 15.5142 8.74433C15.6839 8.61329 15.8003 8.43096 15.8438 8.22822L16.9817 2.8598C17.0092 2.72988 17.0057 2.59583 16.9715 2.46734C16.9373 2.33885 16.8734 2.21912 16.7842 2.1168Z" fill="#F7F7F7"/>
</svg>
