<svg width="40" height="40" viewBox="0 0 40 40" fill="none" xmlns="http://www.w3.org/2000/svg">
<mask id="mask0_2_1641" style="mask-type:alpha" maskUnits="userSpaceOnUse" x="0" y="0" width="40" height="40">
<path d="M40 20C40 25.3043 37.8929 30.3914 34.1421 34.1421C30.3914 37.8929 25.3043 40 20 40C14.6957 40 9.60859 37.8929 5.85786 34.1421C2.10714 30.3914 0 25.3043 0 20C0 14.6957 2.10714 9.60859 5.85786 5.85786C9.60859 2.10714 14.6957 0 20 0C25.3043 0 30.3914 2.10714 34.1421 5.85786C37.8929 9.60859 40 14.6957 40 20ZM20 8.75C20 8.41848 19.8683 8.10054 19.6339 7.86612C19.3995 7.6317 19.0815 7.5 18.75 7.5C18.4185 7.5 18.1005 7.6317 17.8661 7.86612C17.6317 8.10054 17.5 8.41848 17.5 8.75V22.5C17.5001 22.7203 17.5584 22.9367 17.669 23.1273C17.7796 23.3178 17.9387 23.4757 18.13 23.585L26.88 28.585C27.1671 28.7402 27.5036 28.7769 27.8175 28.6873C28.1313 28.5977 28.3977 28.3889 28.5596 28.1055C28.7216 27.8221 28.7662 27.4866 28.6841 27.1707C28.6019 26.8548 28.3995 26.5836 28.12 26.415L20 21.775V8.75Z" fill="black"/>
</mask>
<g mask="url(#mask0_2_1641)">
<rect x="-1.83984" y="-1.83984" width="43.68" height="43.68" fill="url(#paint0_linear_2_1641)" fill-opacity="0.72"/>
</g>
<defs>
<linearGradient id="paint0_linear_2_1641" x1="20.0002" y1="-1.83984" x2="20.0002" y2="41.8402" gradientUnits="userSpaceOnUse">
<stop stop-color="#88D16E"/>
<stop offset="1" stop-color="#239706"/>
</linearGradient>
</defs>
</svg>
