<svg width="12" height="13" viewBox="0 0 12 13" fill="none" xmlns="http://www.w3.org/2000/svg">
<path d="M11.2994 8.12517C11.7609 7.32619 12.0016 6.43467 12 5.52954C12 2.47561 9.31376 0 6 0C2.68624 0 8.80152e-06 2.47561 8.80152e-06 5.52954C-0.00242001 6.83395 0.497901 8.09676 1.41177 9.09284L1.41883 9.10097C1.4213 9.10292 1.42342 9.10553 1.42518 9.10748H1.41177L4.97224 12.5911C5.10422 12.7202 5.26347 12.8231 5.44018 12.8934C5.61689 12.9637 5.80734 13 5.99982 13C6.19231 13 6.38276 12.9637 6.55947 12.8934C6.73618 12.8231 6.89542 12.7202 7.02741 12.5911L10.5882 9.10748H10.5748L10.5805 9.1013L10.5812 9.10065C10.6066 9.07267 10.632 9.0447 10.6571 9.01608C10.9019 8.73879 11.117 8.44065 11.2994 8.12517ZM6.00177 7.64345C5.44013 7.64345 4.9015 7.43784 4.50436 7.07184C4.10723 6.70584 3.88412 6.20945 3.88412 5.69185C3.88412 5.17425 4.10723 4.67785 4.50436 4.31186C4.9015 3.94586 5.44013 3.74025 6.00177 3.74025C6.5634 3.74025 7.10203 3.94586 7.49917 4.31186C7.8963 4.67785 8.11941 5.17425 8.11941 5.69185C8.11941 6.20945 7.8963 6.70584 7.49917 7.07184C7.10203 7.43784 6.5634 7.64345 6.00177 7.64345Z" fill="#E1FBA6"/>
</svg>
