<svg width="22" height="22" viewBox="0 0 22 22" fill="none" xmlns="http://www.w3.org/2000/svg">
<path d="M6.875 1.375C6.875 0.614453 7.48945 0 8.25 0H9.625C10.3855 0 11 0.614453 11 1.375C11.7605 1.375 12.375 1.98945 12.375 2.75V12.375C12.375 13.1355 11.7605 13.75 11 13.75C11 14.5105 10.3855 15.125 9.625 15.125H8.25C7.48945 15.125 6.875 14.5105 6.875 13.75C6.11445 13.75 5.5 13.1355 5.5 12.375V2.75C5.5 1.98945 6.11445 1.375 6.875 1.375ZM1.375 19.25H13.75C16.7879 19.25 19.25 16.7879 19.25 13.75C19.25 10.7121 16.7879 8.25 13.75 8.25V5.5C18.3047 5.5 22 9.19531 22 13.75C22 15.8641 21.2051 17.7891 19.8988 19.25H20.625C21.3855 19.25 22 19.8645 22 20.625C22 21.3855 21.3855 22 20.625 22H1.375C0.614453 22 0 21.3855 0 20.625C0 19.8645 0.614453 19.25 1.375 19.25ZM4.8125 16.5H13.0625C13.4406 16.5 13.75 16.8094 13.75 17.1875C13.75 17.5656 13.4406 17.875 13.0625 17.875H4.8125C4.43438 17.875 4.125 17.5656 4.125 17.1875C4.125 16.8094 4.43438 16.5 4.8125 16.5Z" fill="url(#paint0_linear_2_1378)" fill-opacity="0.72"/>
<defs>
<linearGradient id="paint0_linear_2_1378" x1="11" y1="0" x2="11" y2="22" gradientUnits="userSpaceOnUse">
<stop stop-color="#74CC3F"/>
<stop offset="1" stop-color="#3DA202"/>
</linearGradient>
</defs>
</svg>
