<svg width="10" height="14" viewBox="0 0 10 14" fill="none" xmlns="http://www.w3.org/2000/svg">
<path d="M1.55645 0.408669L2.63315 0.068072C2.98849 -0.044158 3.37062 -0.0169277 3.70824 0.144683C4.04586 0.306295 4.31592 0.591249 4.46804 0.946392L5.2229 2.7077C5.35392 3.01326 5.39043 3.3542 5.32733 3.68264C5.26422 4.01109 5.10466 4.31056 4.87104 4.53899L3.72208 5.66226C3.56811 5.81565 3.68484 6.41344 4.24737 7.4364C4.81045 8.45994 5.24569 8.86469 5.44636 8.8017L6.95163 8.3188C7.25675 8.22088 7.58342 8.22559 7.88586 8.33227C8.1883 8.43895 8.45134 8.64225 8.63811 8.91368L9.71092 10.4738C9.92761 10.7888 10.0279 11.1757 9.99329 11.5625C9.95863 11.9493 9.79134 12.3097 9.52248 12.5768L8.69314 13.4009C8.42541 13.6669 8.09522 13.8537 7.73625 13.9421C7.37728 14.0305 7.00238 14.0175 6.6498 13.9042C4.91218 13.3461 3.30296 11.6898 1.80047 8.95859C0.294642 6.22331 -0.274003 3.91612 0.122325 2.03117C0.20226 1.65135 0.377293 1.30078 0.629379 1.01558C0.881465 0.730379 1.20148 0.520877 1.55645 0.408669Z" fill="#E1FBA6"/>
</svg>
