<svg width="18" height="19" viewBox="0 0 18 19" fill="none" xmlns="http://www.w3.org/2000/svg">
<path d="M2.39469 1.47221L3.34535 0.860228C4.23508 0.287412 5.41142 0.510465 6.09306 1.38128L7.45039 3.11622C8.04191 3.87148 8.11098 4.92884 7.62119 5.72958L6.2603 7.95764C6.65282 8.9663 7.27655 9.89515 8.13244 10.7439C8.95042 11.5679 9.92538 12.2194 10.9996 12.6598L13 11.3346C13.7579 10.8336 14.7506 10.9092 15.4633 11.5221L17.1233 12.9499C17.953 13.6628 18.1695 14.8949 17.6317 15.8328L17.055 16.8381C16.4812 17.8386 15.4363 18.4272 14.31 18.3823C11.6524 18.2771 8.78775 16.6132 5.71509 13.3908C2.63797 10.1634 1.04824 7.14893 0.944993 4.35171C0.901685 3.17454 1.45389 2.07845 2.39663 1.47169" fill="url(#paint0_linear_2_1381)" fill-opacity="0.72"/>
<defs>
<linearGradient id="paint0_linear_2_1381" x1="6.75972" y1="-0.156527" x2="11.9555" y2="19.1565" gradientUnits="userSpaceOnUse">
<stop stop-color="#74CC3F"/>
<stop offset="1" stop-color="#3DA202"/>
</linearGradient>
</defs>
</svg>
