<svg width="38" height="38" viewBox="0 0 38 38" fill="none" xmlns="http://www.w3.org/2000/svg">
<path d="M36.1321 11.3843C36.8881 12.4608 35.987 13.775 34.6716 13.775H1.9C0.850661 13.775 0 12.9243 0 11.875V8.398C0 3.762 3.762 0 8.398 0H12.806C15.903 0 16.872 1.007 18.107 2.66L20.767 6.194C21.356 6.973 21.432 7.068 22.534 7.068H27.835C31.2637 7.068 34.2981 8.77248 36.1321 11.3843Z" fill="#68B92E"/>
<path d="M36.0684 16.6245C37.1152 16.6245 37.9649 17.4712 37.9684 18.5181L38 27.835C38 33.44 33.44 38 27.835 38H10.165C4.56 38 0 33.44 0 27.835V18.525C0 17.4756 0.850643 16.625 1.89997 16.625L36.0684 16.6245Z" fill="#68B92E"/>
</svg>
