<svg width="18" height="22" viewBox="0 0 18 22" fill="none" xmlns="http://www.w3.org/2000/svg">
<path d="M15.9751 2.42651L10.1136 0.172345C9.50617 -0.0574484 8.51505 -0.0574484 7.9076 0.172345L2.04617 2.42651C0.916514 2.86421 0 4.22109 0 5.4576V14.3211C0 15.2074 0.564828 16.3783 1.25754 16.9035L7.11897 21.4009C8.15271 22.1997 9.8472 22.1997 10.8809 21.4009L16.7424 16.9035C17.4351 16.3673 17.9999 15.2074 17.9999 14.3211V5.4576C18.0106 4.22109 17.0941 2.86421 15.9751 2.42651ZM12.714 8.55434L8.1314 13.2596C7.97154 13.4238 7.76905 13.5004 7.56657 13.5004C7.36408 13.5004 7.1616 13.4238 7.00174 13.2596L5.2966 11.4869C4.98754 11.1696 4.98754 10.6444 5.2966 10.327C5.60566 10.0097 6.1172 10.0097 6.42625 10.327L7.57723 11.5088L11.595 7.38349C11.904 7.06615 12.4156 7.06615 12.7246 7.38349C13.0337 7.70082 13.0337 8.23701 12.714 8.55434Z" fill="white"/>
</svg>
