<svg width="37" height="38" viewBox="0 0 37 38" fill="none" xmlns="http://www.w3.org/2000/svg">
<path d="M7.4 0C1.85 0 0 3.30475 0 7.38491V35.0783C0 36.6107 1.739 37.4784 2.96 36.5553L6.1235 34.1922C6.8635 33.6383 7.8995 33.7121 8.5655 34.3768L11.6365 37.46C12.358 38.18 13.542 38.18 14.2635 37.46L17.3715 34.3583C18.019 33.7121 19.055 33.6383 19.7765 34.1922L22.94 36.5553C24.161 37.46 25.9 36.5923 25.9 35.0783V3.69246C25.9 1.66161 27.565 0 29.6 0H7.4ZM7.3445 22.1732C6.327 22.1732 5.4945 21.3424 5.4945 20.327C5.4945 19.3116 6.327 18.4807 7.3445 18.4807C8.362 18.4807 9.1945 19.3116 9.1945 20.327C9.1945 21.3424 8.362 22.1732 7.3445 22.1732ZM7.3445 14.7883C6.327 14.7883 5.4945 13.9575 5.4945 12.9421C5.4945 11.9266 6.327 11.0958 7.3445 11.0958C8.362 11.0958 9.1945 11.9266 9.1945 12.9421C9.1945 13.9575 8.362 14.7883 7.3445 14.7883ZM18.5 21.7116H12.95C12.1915 21.7116 11.5625 21.0839 11.5625 20.327C11.5625 19.57 12.1915 18.9423 12.95 18.9423H18.5C19.2585 18.9423 19.8875 19.57 19.8875 20.327C19.8875 21.0839 19.2585 21.7116 18.5 21.7116ZM18.5 14.3267H12.95C12.1915 14.3267 11.5625 13.699 11.5625 12.9421C11.5625 12.1851 12.1915 11.5574 12.95 11.5574H18.5C19.2585 11.5574 19.8875 12.1851 19.8875 12.9421C19.8875 13.699 19.2585 14.3267 18.5 14.3267Z" fill="#68B92E"/>
<path d="M29.6185 2.76934C30.8395 2.76934 32.005 3.26782 32.856 4.09863C33.744 5.00328 34.225 6.1664 34.225 7.38491V11.8528C34.225 13.219 33.6145 13.8467 32.227 13.8467H28.675V3.71092C28.675 3.19398 29.1005 2.76934 29.6185 2.76934ZM29.6185 0C27.565 0 25.9 1.66161 25.9 3.71092V16.6161H32.227C35.15 16.6161 37 14.7698 37 11.8528V7.38491C37 5.35406 36.1675 3.50783 34.8355 2.16009C33.485 0.830803 31.6535 0.0184623 29.6185 0Z" fill="#68B92E"/>
</svg>
