<svg width="308" height="296" viewBox="0 0 308 296" fill="none" xmlns="http://www.w3.org/2000/svg">
<path d="M67.7596 24.6669V82.3337C67.7596 84.5428 65.9688 86.3337 63.7596 86.3337H6.15991C2.75785 86.3337 -6.10352e-05 89.0946 -6.10352e-05 92.5003V141.834C-6.10352e-05 145.24 2.75785 148 6.15991 148H131.519C133.728 148 135.519 146.21 135.519 144V24.6669C135.519 21.2612 132.761 18.5002 129.359 18.5002H73.9196C70.5175 18.5002 67.7596 21.2612 67.7596 24.6669Z" fill="url(#paint0_linear_0_4)" fill-opacity="0.4"/>
<path d="M67.7596 289.834V232.167C67.7596 229.958 65.9688 228.167 63.7596 228.167H6.15991C2.75785 228.167 -6.10352e-05 225.406 -6.10352e-05 222V172.667C-6.10352e-05 169.261 2.75785 166.5 6.15991 166.5H131.519C133.728 166.5 135.519 168.291 135.519 170.5V289.834C135.519 293.239 132.761 296 129.359 296H73.9196C70.5175 296 67.7596 293.239 67.7596 289.834Z" fill="url(#paint1_linear_0_4)" fill-opacity="0.4"/>
<path d="M221.758 289.834V232.167C221.758 229.958 223.548 228.167 225.758 228.167H283.357C286.759 228.167 289.517 225.406 289.517 222V172.667C289.517 169.261 286.759 166.5 283.357 166.5H157.998C155.789 166.5 153.998 168.291 153.998 170.5V289.834C153.998 293.239 156.756 296 160.158 296H215.598C219 296 221.758 293.239 221.758 289.834Z" fill="url(#paint2_linear_0_4)" fill-opacity="0.4"/>
<path d="M234.08 30.8336V65.3876C234.08 67.5967 235.871 69.3876 238.08 69.3876H277.2C294.21 69.3876 308 83.1922 308 100.221V104.834C308 121.863 294.21 135.667 277.2 135.667H170.315C168.106 135.667 166.315 133.876 166.315 131.667V30.8336C166.315 13.8048 180.104 0.000244141 197.115 0.000244141H203.28C220.291 0.000244141 234.08 13.8048 234.08 30.8336Z" fill="url(#paint3_linear_0_4)" fill-opacity="0.4"/>
<defs>
<linearGradient id="paint0_linear_0_4" x1="154" y1="0.000244141" x2="154" y2="296" gradientUnits="userSpaceOnUse">
<stop stop-color="#CDECB9"/>
<stop offset="1" stop-color="#9ACC7A"/>
</linearGradient>
<linearGradient id="paint1_linear_0_4" x1="154" y1="0.000244141" x2="154" y2="296" gradientUnits="userSpaceOnUse">
<stop stop-color="#CDECB9"/>
<stop offset="1" stop-color="#9ACC7A"/>
</linearGradient>
<linearGradient id="paint2_linear_0_4" x1="154" y1="0.000244141" x2="154" y2="296" gradientUnits="userSpaceOnUse">
<stop stop-color="#CDECB9"/>
<stop offset="1" stop-color="#9ACC7A"/>
</linearGradient>
<linearGradient id="paint3_linear_0_4" x1="154" y1="0.000244141" x2="154" y2="296" gradientUnits="userSpaceOnUse">
<stop stop-color="#CDECB9"/>
<stop offset="1" stop-color="#9ACC7A"/>
</linearGradient>
</defs>
</svg>
