<svg width="13" height="12" viewBox="0 0 13 12" fill="none" xmlns="http://www.w3.org/2000/svg">
<path d="M2.72823 1.33393C2.72805 1.68753 2.58415 2.02658 2.32821 2.27649C2.07226 2.5264 1.72522 2.6667 1.36343 2.66652C1.00165 2.66634 0.65475 2.5257 0.399057 2.27554C0.143364 2.02539 -0.000180722 1.6862 1.70761e-07 1.33259C0.000181063 0.978991 0.144073 0.639941 0.400022 0.390031C0.655971 0.140122 1.00301 -0.000176634 1.3648 1.66898e-07C1.72658 0.000176968 2.07348 0.140814 2.32917 0.390974C2.58486 0.641134 2.72841 0.980324 2.72823 1.33393ZM2.76915 3.6538H0.0409235V12H2.76915V3.6538ZM7.07975 3.6538H4.36516V12H7.05247V7.62024C7.05247 5.18038 10.3059 4.95373 10.3059 7.62024V12H13V6.71363C13 2.60052 8.18468 2.75385 7.05247 4.77374L7.07975 3.6538Z" fill="white"/>
</svg>
