<svg width="18" height="14" viewBox="0 0 18 14" fill="none" xmlns="http://www.w3.org/2000/svg">
<path fill-rule="evenodd" clip-rule="evenodd" d="M9.00002 0.333008C9.71252 0.333008 10.4434 0.351341 11.1517 0.381341L11.9884 0.421341L12.7892 0.468841L13.5392 0.519674L14.2242 0.573008C14.9676 0.629906 15.6671 0.94713 16.1996 1.46887C16.7322 1.99062 17.0637 2.68346 17.1359 3.42551L17.1692 3.77967L17.2317 4.53801C17.29 5.32384 17.3334 6.18051 17.3334 6.99967C17.3334 7.81884 17.29 8.67551 17.2317 9.46134L17.1692 10.2197C17.1584 10.3413 17.1475 10.4588 17.1359 10.5738C17.0637 11.316 16.732 12.009 16.1993 12.5307C15.6666 13.0525 14.9669 13.3696 14.2234 13.4263L13.54 13.4788L12.79 13.5305L11.9884 13.578L11.1517 13.618C10.4349 13.6492 9.7175 13.6653 9.00002 13.6663C8.28254 13.6653 7.56516 13.6492 6.84835 13.618L6.01169 13.578L5.21085 13.5305L4.46085 13.4788L3.77585 13.4263C3.03248 13.3694 2.33298 13.0522 1.80041 12.5305C1.26785 12.0087 0.936332 11.3159 0.864187 10.5738L0.830854 10.2197L0.768354 9.46134C0.704635 8.64229 0.670724 7.82119 0.666687 6.99967C0.666687 6.18051 0.71002 5.32384 0.768354 4.53801L0.830854 3.77967C0.841687 3.65801 0.85252 3.54051 0.864187 3.42551C0.936304 2.68359 1.2677 1.99085 1.8001 1.46913C2.33249 0.947401 3.03179 0.630093 3.77502 0.573008L4.45919 0.519674L5.20919 0.468841L6.01085 0.421341L6.84752 0.381341C7.5646 0.350202 8.28226 0.334087 9.00002 0.333008ZM7.33335 4.97884V9.02051C7.33335 9.40551 7.75002 9.64551 8.08335 9.45384L11.5834 7.43301C11.6595 7.38917 11.7228 7.32603 11.7668 7.24995C11.8107 7.17388 11.8339 7.08755 11.8339 6.99967C11.8339 6.9118 11.8107 6.82547 11.7668 6.7494C11.7228 6.67332 11.6595 6.61018 11.5834 6.56634L8.08335 4.54634C8.00732 4.50244 7.92107 4.47934 7.83327 4.47935C7.74548 4.47937 7.65923 4.5025 7.58321 4.54642C7.5072 4.59034 7.44408 4.65351 7.40022 4.72956C7.35636 4.80562 7.3333 4.89188 7.33335 4.97967V4.97884Z" fill="#E1FBA6"/>
</svg>
